<svg width="30" height="31" viewBox="0 0 30 31" fill="none" xmlns="http://www.w3.org/2000/svg">
<g filter="url(#filter0_i_613_425)">
<circle cx="15" cy="15.5" r="15" fill="#4C4C4C"/>
<path d="M8.616 23.5C8.15533 23.5 7.771 23.346 7.463 23.038C7.155 22.73 7.00067 22.3453 7 21.884V9.116C7 8.65533 7.15433 8.271 7.463 7.963C7.77167 7.655 8.15567 7.50067 8.615 7.5H17.923V8.5H8.616C8.462 8.5 8.32067 8.564 8.192 8.692C8.06333 8.82 7.99933 8.96133 8 9.116V21.885C8 22.0383 8.064 22.1793 8.192 22.308C8.32 22.4367 8.461 22.5007 8.615 22.5H21.385C21.5383 22.5 21.6793 22.436 21.808 22.308C21.9367 22.18 22.0007 22.039 22 21.885V12.577H23V21.885C23 22.345 22.846 22.7293 22.538 23.038C22.23 23.3467 21.8453 23.5007 21.384 23.5H8.616ZM11.5 20V19H18.5V20H11.5ZM11.5 17V16H18.5V17H11.5ZM11.5 14V13H18.5V14H11.5ZM21 11.5V9.5H19V8.5H21V6.5H22V8.5H24V9.5H22V11.5H21Z" fill="#F7F7F7"/>
</g>
<defs>
<filter id="filter0_i_613_425" x="0" y="0.5" width="30" height="34" filterUnits="userSpaceOnUse" color-interpolation-filters="sRGB">
<feFlood flood-opacity="0" result="BackgroundImageFix"/>
<feBlend mode="normal" in="SourceGraphic" in2="BackgroundImageFix" result="shape"/>
<feColorMatrix in="SourceAlpha" type="matrix" values="0 0 0 0 0 0 0 0 0 0 0 0 0 0 0 0 0 0 127 0" result="hardAlpha"/>
<feOffset dy="4"/>
<feGaussianBlur stdDeviation="2"/>
<feComposite in2="hardAlpha" operator="arithmetic" k2="-1" k3="1"/>
<feColorMatrix type="matrix" values="0 0 0 0 0 0 0 0 0 0 0 0 0 0 0 0 0 0 0.25 0"/>
<feBlend mode="normal" in2="shape" result="effect1_innerShadow_613_425"/>
</filter>
</defs>
</svg>
