<svg width="28" height="31" viewBox="0 0 28 31" fill="none" xmlns="http://www.w3.org/2000/svg">
<path fill-rule="evenodd" clip-rule="evenodd" d="M24.4206 3.57743C24.1225 3.27963 23.7687 3.04341 23.3792 2.88224C22.9898 2.72108 22.5724 2.63813 22.1509 2.63813C21.7294 2.63813 21.312 2.72108 20.9226 2.88224C20.5332 3.04341 20.1793 3.27963 19.8813 3.57743L4.2747 19.1702C3.27152 20.1727 2.70801 21.5323 2.70814 22.9499C2.70828 24.3675 3.27204 25.727 4.27542 26.7293C5.27879 27.7316 6.63959 28.2947 8.05844 28.2945C9.4773 28.2944 10.838 27.7311 11.8412 26.7286L22.8157 15.7638C23.0185 15.5749 23.2868 15.4721 23.564 15.477C23.8411 15.4819 24.1056 15.5941 24.3016 15.79C24.4977 15.9858 24.6099 16.25 24.6148 16.527C24.6197 16.8039 24.5168 17.0719 24.3278 17.2746L13.3533 28.2394C12.6612 28.9491 11.835 29.5143 10.9225 29.9023C10.01 30.2903 9.02953 30.4934 8.03788 30.4998C7.04622 30.5063 6.06316 30.3158 5.14574 29.9396C4.22833 29.5634 3.39483 29.0089 2.6936 28.3083C1.99238 27.6077 1.4374 26.775 1.06087 25.8584C0.684332 24.9417 0.493743 23.9596 0.500157 22.9688C0.506571 21.978 0.709861 20.9983 1.09823 20.0867C1.4866 19.175 2.05232 18.3495 2.76255 17.658L18.3677 2.06518C19.3711 1.06288 20.7318 0.499866 22.1507 0.5C23.5696 0.500134 24.9303 1.0634 25.9334 2.0659C26.9366 3.06839 27.5001 4.42798 27.5 5.84559C27.4999 7.26319 26.9361 8.62269 25.9327 9.62499L10.3362 25.2078L10.3247 25.2192L10.3148 25.2292L10.3119 25.2321L10.3076 25.2349C9.69757 25.8038 8.88975 26.113 8.05541 26.0968C7.22107 26.0807 6.42582 25.7405 5.83826 25.1485C5.25069 24.5564 4.91701 23.759 4.90794 22.9253C4.89888 22.0916 5.21515 21.2872 5.78971 20.6825L16.9311 9.55087C17.1328 9.35605 17.403 9.24818 17.6836 9.25048C17.9641 9.25278 18.2325 9.36508 18.431 9.56318C18.6294 9.76129 18.7421 10.0293 18.7447 10.3096C18.7472 10.5899 18.6395 10.86 18.4447 11.0617L7.30329 22.1933C7.10125 22.3925 6.9867 22.6638 6.98482 22.9474C6.98295 23.231 7.09391 23.5037 7.2933 23.7056C7.49269 23.9074 7.76417 24.0219 8.04802 24.0237C8.33188 24.0256 8.60485 23.9147 8.80688 23.7155L24.4206 8.11132C24.7186 7.81353 24.9551 7.45999 25.1164 7.07091C25.2777 6.68182 25.3607 6.2648 25.3607 5.84366C25.3607 5.42252 25.2777 5.0055 25.1164 4.61641C24.9551 4.22733 24.7186 3.87522 24.4206 3.57743Z" fill="#F7F7F7"/>
</svg>
