<svg width="30" height="31" viewBox="0 0 30 31" fill="none" xmlns="http://www.w3.org/2000/svg">
<g filter="url(#filter0_i_1313_4745)">
<circle cx="15" cy="15.5" r="15" fill="#4C4C4C"/>
<path d="M8.77778 8.5H21.2222C21.4285 8.5 21.6263 8.58676 21.7722 8.74121C21.9181 8.89565 22 9.10512 22 9.32353V10.6296C22 10.848 21.918 11.0575 21.7721 11.2119L16.7834 16.494C16.6376 16.6484 16.5556 16.8578 16.5556 17.0762V22.2686C16.5556 22.3938 16.5286 22.5173 16.4767 22.6298C16.4249 22.7423 16.3495 22.8408 16.2563 22.9178C16.1631 22.9948 16.0545 23.0483 15.9388 23.0742C15.8232 23.1002 15.7035 23.0978 15.5888 23.0674L14.0332 22.6556C13.865 22.611 13.7157 22.5082 13.6091 22.3635C13.5024 22.2187 13.4444 22.0404 13.4444 21.8568V17.0762C13.4444 16.8578 13.3624 16.6484 13.2166 16.494L8.22789 11.2119C8.08202 11.0575 8.00004 10.848 8 10.6296V9.32353C8 9.10512 8.08194 8.89565 8.22781 8.74121C8.37367 8.58676 8.5715 8.5 8.77778 8.5Z" stroke="#F7F7F7" stroke-linecap="round" stroke-linejoin="round"/>
</g>
<defs>
<filter id="filter0_i_1313_4745" x="0" y="0.5" width="30" height="34" filterUnits="userSpaceOnUse" color-interpolation-filters="sRGB">
<feFlood flood-opacity="0" result="BackgroundImageFix"/>
<feBlend mode="normal" in="SourceGraphic" in2="BackgroundImageFix" result="shape"/>
<feColorMatrix in="SourceAlpha" type="matrix" values="0 0 0 0 0 0 0 0 0 0 0 0 0 0 0 0 0 0 127 0" result="hardAlpha"/>
<feOffset dy="4"/>
<feGaussianBlur stdDeviation="2"/>
<feComposite in2="hardAlpha" operator="arithmetic" k2="-1" k3="1"/>
<feColorMatrix type="matrix" values="0 0 0 0 0 0 0 0 0 0 0 0 0 0 0 0 0 0 0.25 0"/>
<feBlend mode="normal" in2="shape" result="effect1_innerShadow_1313_4745"/>
</filter>
</defs>
</svg>
