<svg width="30" height="31" viewBox="0 0 30 31" fill="none" xmlns="http://www.w3.org/2000/svg">
<g filter="url(#filter0_i_613_421)">
<circle cx="15" cy="15.5" r="15" fill="#4C4C4C"/>
<path d="M15.704 6.5C18.3772 6.5 20.8525 7.68575 22.4938 9.6824C22.5406 9.739 22.5755 9.80442 22.5964 9.87478C22.6174 9.94514 22.624 10.019 22.6158 10.092C22.6076 10.1649 22.5849 10.2355 22.5489 10.2995C22.5129 10.3635 22.4644 10.4195 22.4062 10.4644C22.2879 10.5571 22.1381 10.6001 21.9887 10.5843C21.8392 10.5684 21.7018 10.4949 21.6055 10.3794C20.8878 9.51004 19.9861 8.81083 18.9654 8.33223C17.9447 7.85363 16.8305 7.60757 15.7031 7.6118C11.5254 7.6118 8.13815 10.92 8.13815 15C8.13815 19.08 11.5254 22.3882 15.7031 22.3882C16.8467 22.3926 17.9766 22.1394 19.009 21.6475C20.0414 21.1556 20.9498 20.4375 21.6667 19.5466C21.7613 19.43 21.8976 19.3547 22.0468 19.3367C22.1959 19.3188 22.3462 19.3596 22.4657 19.4506C22.5244 19.4947 22.5735 19.5501 22.6103 19.6136C22.6471 19.677 22.6708 19.7473 22.6799 19.82C22.689 19.8928 22.6834 19.9667 22.6634 20.0373C22.6434 20.1079 22.6094 20.1737 22.5635 20.2309C20.9247 22.2794 18.4163 23.5 15.704 23.5C10.8955 23.5 7 19.6946 7 15C7 10.3055 10.8964 6.5 15.704 6.5ZM21.5333 12.586L23.8334 14.8869C24.0561 15.1088 24.0603 15.465 23.8436 15.6826L21.5962 17.9291C21.4896 18.0335 21.3458 18.0912 21.1966 18.0896C21.0474 18.088 20.905 18.0272 20.8006 17.9206C20.7476 17.869 20.7054 17.8074 20.6762 17.7394C20.6471 17.6714 20.6316 17.5983 20.6308 17.5243C20.6299 17.4503 20.6436 17.3769 20.6712 17.3083C20.6987 17.2396 20.7395 17.177 20.7912 17.1242L22.1062 15.8092H13.3427C13.2688 15.8101 13.1955 15.7964 13.1268 15.769C13.0582 15.7415 12.9957 15.7008 12.9428 15.6492C12.8899 15.5976 12.8477 15.5361 12.8186 15.4681C12.7895 15.4002 12.7741 15.3272 12.7732 15.2533C12.7732 14.9456 13.0282 14.6966 13.3427 14.6966H22.0714L20.747 13.3723C20.6403 13.268 20.5794 13.1256 20.5776 12.9764C20.5759 12.8272 20.6335 12.6834 20.7377 12.5767C20.8445 12.4724 20.9882 12.4148 21.1374 12.4166C21.2866 12.4183 21.429 12.4793 21.5333 12.586Z" fill="#F7F7F7"/>
</g>
<defs>
<filter id="filter0_i_613_421" x="0" y="0.5" width="30" height="34" filterUnits="userSpaceOnUse" color-interpolation-filters="sRGB">
<feFlood flood-opacity="0" result="BackgroundImageFix"/>
<feBlend mode="normal" in="SourceGraphic" in2="BackgroundImageFix" result="shape"/>
<feColorMatrix in="SourceAlpha" type="matrix" values="0 0 0 0 0 0 0 0 0 0 0 0 0 0 0 0 0 0 127 0" result="hardAlpha"/>
<feOffset dy="4"/>
<feGaussianBlur stdDeviation="2"/>
<feComposite in2="hardAlpha" operator="arithmetic" k2="-1" k3="1"/>
<feColorMatrix type="matrix" values="0 0 0 0 0 0 0 0 0 0 0 0 0 0 0 0 0 0 0.25 0"/>
<feBlend mode="normal" in2="shape" result="effect1_innerShadow_613_421"/>
</filter>
</defs>
</svg>
