<svg width="24" height="24" viewBox="0 0 24 24" fill="none" xmlns="http://www.w3.org/2000/svg">
<g filter="url(#filter0_i_828_1445)">
<circle cx="12" cy="12" r="12" fill="#4C4C4C"/>
<path d="M9.60156 15.9998V16.7998C9.60156 17.4363 9.85442 18.0468 10.3045 18.4969C10.7546 18.9469 11.365 19.1998 12.0016 19.1998C12.6381 19.1998 13.2485 18.9469 13.6986 18.4969C14.1487 18.0468 14.4016 17.4363 14.4016 16.7998V15.9998M10.4016 6.3998C10.4016 5.97546 10.5701 5.56849 10.8702 5.26843C11.1703 4.96838 11.5772 4.7998 12.0016 4.7998C12.4259 4.7998 12.8329 4.96838 13.1329 5.26843C13.433 5.56849 13.6016 5.97546 13.6016 6.3998C14.5203 6.83423 15.3035 7.51047 15.8672 8.35604C16.4309 9.20162 16.7539 10.1847 16.8016 11.1998V13.5998C16.8618 14.0972 17.0379 14.5735 17.3158 14.9903C17.5937 15.4072 17.9656 15.7529 18.4016 15.9998H5.60156C6.03751 15.7529 6.40941 15.4072 6.68731 14.9903C6.96521 14.5735 7.14136 14.0972 7.20156 13.5998V11.1998C7.24921 10.1847 7.5722 9.20162 8.13592 8.35604C8.69964 7.51047 9.48284 6.83423 10.4016 6.3998Z" stroke="#F7F7F7" stroke-linecap="round" stroke-linejoin="round"/>
</g>
<defs>
<filter id="filter0_i_828_1445" x="0" y="0" width="24" height="28" filterUnits="userSpaceOnUse" color-interpolation-filters="sRGB">
<feFlood flood-opacity="0" result="BackgroundImageFix"/>
<feBlend mode="normal" in="SourceGraphic" in2="BackgroundImageFix" result="shape"/>
<feColorMatrix in="SourceAlpha" type="matrix" values="0 0 0 0 0 0 0 0 0 0 0 0 0 0 0 0 0 0 127 0" result="hardAlpha"/>
<feOffset dy="4"/>
<feGaussianBlur stdDeviation="2"/>
<feComposite in2="hardAlpha" operator="arithmetic" k2="-1" k3="1"/>
<feColorMatrix type="matrix" values="0 0 0 0 0 0 0 0 0 0 0 0 0 0 0 0 0 0 0.25 0"/>
<feBlend mode="normal" in2="shape" result="effect1_innerShadow_828_1445"/>
</filter>
</defs>
</svg>
