<svg width="30" height="31" viewBox="0 0 30 31" fill="none" xmlns="http://www.w3.org/2000/svg">
<g filter="url(#filter0_i_613_422)">
<circle cx="15" cy="15.5" r="15" fill="#4C4C4C"/>
</g>
<path d="M15.038 20.322C14.8313 20.322 14.6513 20.2453 14.498 20.092C14.3447 19.9387 14.268 19.7587 14.268 19.552C14.268 19.3453 14.3447 19.1653 14.498 19.012C14.6513 18.8587 14.8313 18.782 15.038 18.782C15.2447 18.782 15.4247 18.8587 15.578 19.012C15.7313 19.1653 15.808 19.3453 15.808 19.552C15.808 19.7587 15.7313 19.9387 15.578 20.092C15.4247 20.2453 15.2447 20.322 15.038 20.322ZM15.038 16.782C14.8953 16.782 14.7763 16.7343 14.681 16.639C14.5857 16.5437 14.538 16.425 14.538 16.283V11.552C14.538 11.41 14.586 11.2913 14.682 11.196C14.778 11.1007 14.897 11.0527 15.039 11.052C15.181 11.0513 15.2997 11.0993 15.395 11.196C15.4903 11.2927 15.538 11.4113 15.538 11.552V16.282C15.538 16.424 15.49 16.543 15.394 16.639C15.298 16.735 15.179 16.783 15.037 16.783M7.999 15.629C7.999 16.6437 8.21367 17.5783 8.643 18.433C9.07167 19.2877 9.83167 20.1953 10.923 21.156V18.629C10.923 18.4877 10.971 18.369 11.067 18.273C11.163 18.177 11.2817 18.129 11.423 18.129C11.5643 18.129 11.683 18.177 11.779 18.273C11.875 18.369 11.9227 18.4877 11.922 18.629V22.091C11.922 22.3197 11.8447 22.5113 11.69 22.666C11.5353 22.8207 11.3437 22.898 11.115 22.898H7.654C7.512 22.898 7.393 22.85 7.297 22.754C7.201 22.658 7.153 22.5393 7.153 22.398C7.153 22.2567 7.201 22.138 7.297 22.042C7.393 21.946 7.51167 21.898 7.653 21.898H10.243C9.04767 20.8573 8.20833 19.833 7.725 18.825C7.24167 17.817 7 16.7493 7 15.622C7 14.1493 7.38267 12.8087 8.148 11.6C8.91333 10.3913 9.91567 9.47267 11.155 8.844C11.2857 8.77467 11.4193 8.76333 11.556 8.81C11.6927 8.85667 11.7833 8.94867 11.828 9.086C11.8727 9.22333 11.866 9.357 11.808 9.487C11.748 9.61567 11.6547 9.71433 11.528 9.783C10.4667 10.325 9.61333 11.1193 8.968 12.166C8.322 13.2127 7.999 14.367 7.999 15.629ZM22.038 15.769C22.038 14.7543 21.8237 13.8197 21.395 12.965C20.9657 12.1103 20.2057 11.203 19.115 10.243V12.769C19.115 12.911 19.067 13.0297 18.971 13.125C18.875 13.2203 18.756 13.2683 18.614 13.269C18.472 13.2697 18.3533 13.2217 18.258 13.125C18.1627 13.0283 18.115 12.9097 18.115 12.769V9.308C18.115 9.07867 18.1923 8.88667 18.347 8.732C18.5017 8.57733 18.6933 8.5 18.922 8.5H22.384C22.526 8.5 22.6447 8.548 22.74 8.644C22.8353 8.74 22.8833 8.859 22.884 9.001C22.8847 9.143 22.8367 9.26167 22.74 9.357C22.6433 9.45233 22.5247 9.5 22.384 9.5H19.794C20.99 10.5407 21.8297 11.565 22.313 12.573C22.7963 13.581 23.038 14.6487 23.038 15.776C23.038 17.2487 22.6547 18.5893 21.888 19.798C21.1207 21.0073 20.1187 21.928 18.882 22.56C18.7513 22.6293 18.618 22.64 18.482 22.592C18.3453 22.5433 18.2543 22.45 18.209 22.312C18.1643 22.1733 18.1713 22.0397 18.23 21.911C18.2887 21.7823 18.382 21.6837 18.51 21.615C19.5713 21.073 20.4247 20.2787 21.07 19.232C21.7153 18.1853 22.038 17.031 22.038 15.769Z" fill="#F7F7F7"/>
<defs>
<filter id="filter0_i_613_422" x="0" y="0.5" width="30" height="34" filterUnits="userSpaceOnUse" color-interpolation-filters="sRGB">
<feFlood flood-opacity="0" result="BackgroundImageFix"/>
<feBlend mode="normal" in="SourceGraphic" in2="BackgroundImageFix" result="shape"/>
<feColorMatrix in="SourceAlpha" type="matrix" values="0 0 0 0 0 0 0 0 0 0 0 0 0 0 0 0 0 0 127 0" result="hardAlpha"/>
<feOffset dy="4"/>
<feGaussianBlur stdDeviation="2"/>
<feComposite in2="hardAlpha" operator="arithmetic" k2="-1" k3="1"/>
<feColorMatrix type="matrix" values="0 0 0 0 0 0 0 0 0 0 0 0 0 0 0 0 0 0 0.25 0"/>
<feBlend mode="normal" in2="shape" result="effect1_innerShadow_613_422"/>
</filter>
</defs>
</svg>
