<svg width="30" height="31" viewBox="0 0 30 31" fill="none" xmlns="http://www.w3.org/2000/svg">
<g filter="url(#filter0_i_1313_4833)">
<circle cx="15" cy="15.5" r="15" fill="#4C4C4C"/>
</g>
<path d="M14.3412 21.1767C13.5084 21.177 12.6836 21.0132 11.9141 20.6947C11.1446 20.3762 10.4453 19.9092 9.85625 19.3204C8.65718 18.1214 8 16.5303 8 14.8355C8 13.1406 8.65718 11.5495 9.85625 10.3505C12.3236 7.88317 16.3474 7.88317 18.8262 10.3505C20.0253 11.5495 20.6824 13.1406 20.6824 14.8355C20.6824 16.5303 20.0253 18.1214 18.8262 19.3204C18.2371 19.9092 17.5379 20.3762 16.7683 20.6947C15.9988 21.0132 15.1741 21.177 14.3412 21.1767ZM14.3412 9.64718C13.0153 9.64718 11.6894 10.1545 10.6748 11.1691C9.69483 12.1491 9.15295 13.4519 9.15295 14.8355C9.15295 16.219 9.69483 17.5218 10.6748 18.5018C11.6491 19.4706 12.9673 20.0144 14.3412 20.0144C15.7152 20.0144 17.0333 19.4706 18.0076 18.5018C18.9876 17.5218 19.5295 16.219 19.5295 14.8355C19.5295 13.4519 18.9876 12.1491 18.0076 11.1691C17.527 10.6861 16.9557 10.303 16.3265 10.0418C15.6972 9.78065 15.0225 9.64652 14.3412 9.64718Z" fill="#F7F7F7"/>
<path d="M22.4119 23.4599C22.3363 23.4608 22.2614 23.4459 22.1919 23.4161C22.1224 23.3863 22.0599 23.3423 22.0084 23.2869L18.1114 19.39C17.8808 19.1594 17.8808 18.802 18.1114 18.5714C18.342 18.3408 18.6994 18.3408 18.93 18.5714L22.827 22.4683C23.0576 22.6989 23.0576 23.0564 22.827 23.2869C22.7117 23.4022 22.5618 23.4599 22.4234 23.4599H22.4119Z" fill="#F7F7F7"/>
<defs>
<filter id="filter0_i_1313_4833" x="0" y="0.5" width="30" height="34" filterUnits="userSpaceOnUse" color-interpolation-filters="sRGB">
<feFlood flood-opacity="0" result="BackgroundImageFix"/>
<feBlend mode="normal" in="SourceGraphic" in2="BackgroundImageFix" result="shape"/>
<feColorMatrix in="SourceAlpha" type="matrix" values="0 0 0 0 0 0 0 0 0 0 0 0 0 0 0 0 0 0 127 0" result="hardAlpha"/>
<feOffset dy="4"/>
<feGaussianBlur stdDeviation="2"/>
<feComposite in2="hardAlpha" operator="arithmetic" k2="-1" k3="1"/>
<feColorMatrix type="matrix" values="0 0 0 0 0.0862745 0 0 0 0 0.0980392 0 0 0 0 0.117647 0 0 0 0.3 0"/>
<feBlend mode="normal" in2="shape" result="effect1_innerShadow_1313_4833"/>
</filter>
</defs>
</svg>
