<svg width="30" height="31" viewBox="0 0 30 31" fill="none" xmlns="http://www.w3.org/2000/svg">
<g filter="url(#filter0_i_613_423)">
<circle cx="15" cy="15.5" r="15" fill="#4C4C4C"/>
<path d="M24.138 18.135L24.088 17.638L24.073 17.639L24.056 17.642L24.138 18.135ZM24.138 18.135L24.188 18.633L24.205 18.631L24.221 18.628L24.138 18.135ZM20.098 23.617L20.415 23.23L20.41 23.227L20.098 23.617ZM20.098 23.617L19.781 24.004L19.786 24.008L20.098 23.617ZM10.902 23.617L10.585 23.231L10.578 23.237L10.57 23.244L10.902 23.617ZM10.902 23.617L11.219 24.005L11.227 23.998L11.234 23.992L10.902 23.617ZM6.861 13.863V13.363H6.837L6.812 13.365L6.861 13.863ZM6.861 13.863V14.363H6.886L6.911 14.36L6.861 13.863ZM18.132 7.31C18.117 7.12869 18.096 6.94792 18.069 6.768C18.0461 6.6088 17.9982 6.45422 17.927 6.31L17.038 6.769C17.048 6.789 17.065 6.829 17.082 6.933C17.101 7.043 17.115 7.186 17.138 7.409L18.132 7.31ZM18.328 8.513C18.316 8.498 18.28 8.437 18.241 8.223C18.1945 7.92001 18.1594 7.61549 18.134 7.31L17.138 7.409C17.178 7.81 17.211 8.142 17.257 8.4C17.302 8.652 17.372 8.909 17.533 9.12L18.328 8.513ZM18.792 8.705C18.7046 8.71676 18.6156 8.70519 18.5341 8.67147C18.4527 8.63775 18.3815 8.58308 18.328 8.513L17.532 9.119C17.6926 9.32958 17.9061 9.4939 18.1507 9.59524C18.3954 9.69659 18.6625 9.73135 18.925 9.696L18.792 8.705ZM19.78 7.992C19.455 8.259 19.233 8.44 19.058 8.561C18.879 8.685 18.81 8.702 18.792 8.705L18.925 9.696C19.187 9.661 19.418 9.529 19.629 9.382C19.844 9.232 20.101 9.022 20.414 8.766L19.78 7.992ZM20.632 7.431C20.472 7.482 20.337 7.563 20.209 7.654C20.085 7.742 19.944 7.858 19.78 7.992L20.414 8.766C20.587 8.624 20.699 8.533 20.789 8.469C20.8337 8.433 20.8836 8.404 20.937 8.383L20.632 7.431ZM21.685 7.483C21.3519 7.33882 20.9777 7.32035 20.632 7.431L20.937 8.383C21.052 8.34658 21.1763 8.35297 21.287 8.401L21.685 7.483ZM22.477 8.127C22.327 7.977 22.198 7.847 22.084 7.747C21.9657 7.63854 21.8311 7.54944 21.685 7.483L21.287 8.401C21.308 8.41 21.346 8.431 21.426 8.501C21.509 8.573 21.611 8.675 21.77 8.834L22.477 8.127ZM23.37 9.02L22.477 8.127L21.77 8.834L22.663 9.727L23.37 9.02ZM24.014 9.812C23.9472 9.66589 23.8578 9.53123 23.749 9.413C23.649 9.299 23.519 9.17 23.37 9.02L22.663 9.727C22.822 9.886 22.923 9.988 22.997 10.071C23.067 10.151 23.087 10.189 23.096 10.21L24.014 9.812ZM24.066 10.865C24.1767 10.5193 24.1582 10.1451 24.014 9.812L23.096 10.21C23.1437 10.3208 23.1497 10.4451 23.113 10.56L24.066 10.865ZM23.505 11.717C23.639 11.553 23.755 11.412 23.843 11.288C23.933 11.16 24.015 11.025 24.066 10.865L23.113 10.56C23.0923 10.6134 23.0637 10.6633 23.028 10.708C22.9327 10.8359 22.8337 10.961 22.731 11.083L23.505 11.717ZM22.792 12.705C22.795 12.687 22.812 12.618 22.936 12.439C23.057 12.264 23.238 12.042 23.505 11.717L22.731 11.083C22.475 11.396 22.264 11.653 22.115 11.868C21.968 12.078 21.836 12.31 21.801 12.572L22.792 12.705ZM22.984 13.169C22.9139 13.1155 22.8592 13.0443 22.8255 12.9629C22.7918 12.8814 22.7802 12.7924 22.792 12.705L21.801 12.572C21.7658 12.8343 21.8007 13.1012 21.902 13.3457C22.0034 13.5902 22.1676 13.8035 22.378 13.964L22.984 13.169ZM24.187 13.364C23.768 13.322 23.484 13.294 23.274 13.256C23.06 13.217 22.999 13.181 22.984 13.169L22.378 13.964C22.588 14.124 22.845 14.194 23.098 14.24C23.355 14.286 23.686 14.32 24.088 14.36L24.187 13.364ZM25.187 13.57C25.0428 13.4988 24.8882 13.4509 24.729 13.428C24.579 13.403 24.397 13.385 24.187 13.364L24.087 14.359C24.311 14.382 24.454 14.396 24.564 14.415C24.6206 14.4214 24.6758 14.4362 24.728 14.459L25.187 13.57ZM25.894 14.351C25.7605 14.0138 25.5093 13.7363 25.187 13.57L24.728 14.459C24.8355 14.5143 24.9194 14.6067 24.964 14.719L25.894 14.351ZM25.999 15.366C25.999 15.155 25.999 14.972 25.989 14.82C25.9823 14.6596 25.9502 14.5013 25.894 14.351L24.964 14.719C24.972 14.74 24.984 14.782 24.991 14.887C24.9988 15.0469 25.0015 15.207 24.999 15.367L25.999 15.366ZM25.999 16.63V15.366H24.999V16.63H25.999ZM25.894 17.644C25.956 17.488 25.979 17.332 25.989 17.175C25.999 17.024 25.999 16.841 25.999 16.63H24.999C24.999 16.854 24.999 16.998 24.991 17.109C24.9905 17.166 24.9814 17.2227 24.964 17.277L25.894 17.644ZM25.187 18.426C25.5095 18.2595 25.7607 17.9816 25.894 17.644L24.964 17.277C24.9194 17.3893 24.8355 17.4817 24.728 17.537L25.187 18.426ZM24.187 18.632C24.397 18.611 24.58 18.592 24.729 18.567C24.884 18.542 25.037 18.503 25.186 18.427L24.728 17.537C24.6759 17.5598 24.6206 17.5747 24.564 17.581C24.454 17.6 24.311 17.614 24.088 17.637L24.187 18.632ZM22.985 18.827C23 18.815 23.061 18.778 23.275 18.74C23.485 18.702 23.769 18.673 24.187 18.632L24.088 17.637C23.687 17.677 23.355 17.709 23.097 17.756C22.845 17.801 22.589 17.871 22.378 18.031L22.985 18.827ZM22.792 19.291C22.7804 19.2035 22.7921 19.1145 22.826 19.033C22.8599 18.9515 22.9147 18.8804 22.985 18.827L22.378 18.031C22.1674 18.1916 22.0031 18.4051 21.9018 18.6497C21.8004 18.8944 21.7656 19.1615 21.801 19.424L22.792 19.291ZM23.505 20.279C23.3071 20.0449 23.1173 19.8041 22.936 19.557C22.812 19.379 22.795 19.309 22.792 19.291L21.802 19.425C21.837 19.687 21.969 19.917 22.115 20.128C22.265 20.342 22.475 20.6 22.731 20.912L23.505 20.279ZM24.066 21.131C24.0144 20.9788 23.9392 20.8357 23.843 20.707C23.7348 20.5608 23.6221 20.4181 23.505 20.279L22.731 20.912C22.873 21.086 22.964 21.197 23.028 21.288C23.0636 21.3325 23.0922 21.382 23.113 21.435L24.066 21.131ZM24.014 22.184C24.1582 21.8509 24.1767 21.4767 24.066 21.131L23.113 21.435C23.15 21.5502 23.1439 21.6749 23.096 21.786L24.014 22.184ZM23.371 22.975C23.52 22.826 23.649 22.697 23.749 22.583C23.853 22.464 23.947 22.339 24.014 22.184L23.096 21.786C23.0698 21.8368 23.0361 21.8833 22.996 21.924C22.8885 22.042 22.7774 22.1567 22.663 22.268L23.371 22.975ZM22.477 23.869L23.371 22.975L22.663 22.268L21.77 23.162L22.477 23.869ZM21.685 24.512C21.839 24.445 21.965 24.352 22.084 24.248C22.198 24.148 22.327 24.018 22.477 23.868L21.77 23.162C21.611 23.321 21.509 23.422 21.426 23.495C21.385 23.5352 21.3381 23.5689 21.287 23.595L21.685 24.512ZM20.632 24.565C20.9778 24.6753 21.352 24.6565 21.685 24.512L21.287 23.595C21.1762 23.6427 21.0519 23.6487 20.937 23.612L20.632 24.565ZM19.78 24.003C19.944 24.137 20.085 24.253 20.209 24.341C20.337 24.432 20.472 24.514 20.632 24.565L20.937 23.612C20.8836 23.5913 20.8337 23.5627 20.789 23.527C20.6611 23.4314 20.536 23.332 20.414 23.229L19.78 24.003ZM18.792 23.291C18.81 23.293 18.88 23.311 19.058 23.435C19.233 23.556 19.455 23.737 19.78 24.003L20.414 23.229C20.101 22.974 19.844 22.763 19.629 22.613C19.419 22.467 19.187 22.335 18.925 22.3L18.792 23.291ZM18.328 23.483C18.3815 23.4129 18.4527 23.3582 18.5341 23.3245C18.6156 23.2908 18.7046 23.2792 18.792 23.291L18.925 22.3C18.6628 22.2647 18.3959 22.2994 18.1514 22.4006C17.907 22.5017 17.6936 22.6658 17.533 22.876L18.328 23.483ZM18.133 24.686C18.175 24.267 18.203 23.983 18.241 23.773C18.28 23.559 18.316 23.498 18.328 23.483L17.533 22.876C17.373 23.086 17.303 23.344 17.257 23.596C17.211 23.853 17.177 24.184 17.137 24.586L18.133 24.686ZM17.927 25.686C18.004 25.536 18.042 25.383 18.068 25.228C18.094 25.078 18.112 24.896 18.133 24.686L17.137 24.586C17.1231 24.7455 17.1054 24.9046 17.082 25.063C17.0756 25.1196 17.0608 25.1749 17.038 25.227L17.927 25.686ZM17.146 26.393C17.4832 26.2595 17.7607 26.0083 17.927 25.686L17.038 25.227C16.9827 25.3345 16.8903 25.4184 16.778 25.463L17.146 26.393ZM16.131 26.498C16.342 26.498 16.525 26.498 16.677 26.488C16.833 26.478 16.99 26.455 17.146 26.393L16.778 25.463C16.7237 25.4804 16.667 25.4895 16.61 25.49C16.5 25.498 16.355 25.498 16.13 25.498L16.131 26.498ZM14.867 26.498H16.131L16.13 25.498H14.867V26.498ZM13.852 26.393C14.009 26.455 14.165 26.478 14.322 26.488C14.473 26.498 14.656 26.498 14.867 26.498V25.498C14.643 25.498 14.499 25.498 14.388 25.49C14.331 25.4895 14.2743 25.4804 14.22 25.463L13.852 26.393ZM13.071 25.686C13.2373 26.0083 13.5148 26.2595 13.852 26.393L14.22 25.463C14.1077 25.4184 14.0153 25.3345 13.96 25.227L13.071 25.686ZM12.865 24.686C12.886 24.896 12.905 25.079 12.929 25.228C12.955 25.383 12.994 25.536 13.071 25.686L13.96 25.227C13.9372 25.1748 13.9224 25.1196 13.916 25.063C13.8926 24.9049 13.8739 24.7462 13.86 24.587L12.865 24.686ZM12.67 23.483C12.682 23.498 12.718 23.559 12.757 23.773C12.795 23.983 12.823 24.268 12.865 24.686L13.86 24.587C13.82 24.186 13.787 23.854 13.741 23.596C13.696 23.344 13.626 23.087 13.465 22.876L12.67 23.483ZM12.206 23.291C12.2934 23.2792 12.3824 23.2908 12.4639 23.3245C12.5453 23.3582 12.6165 23.4129 12.67 23.483L13.465 22.876C13.3045 22.6656 13.0912 22.5024 12.8467 22.401C12.6022 22.2997 12.3353 22.2648 12.073 22.3L12.206 23.291ZM11.218 24.004C11.543 23.737 11.765 23.556 11.94 23.435C12.119 23.311 12.188 23.293 12.206 23.291L12.073 22.3C11.811 22.335 11.58 22.467 11.369 22.614C11.154 22.763 10.897 22.974 10.584 23.23L11.218 24.004ZM10.366 24.565C10.526 24.514 10.661 24.433 10.789 24.342C10.913 24.254 11.054 24.138 11.218 24.004L10.584 23.23C10.462 23.3327 10.3369 23.4317 10.209 23.527C10.1643 23.5627 10.1144 23.5914 10.061 23.612L10.366 24.565ZM9.313 24.514C9.64614 24.6582 10.0203 24.6757 10.366 24.565L10.061 23.612C9.9461 23.6487 9.8218 23.6427 9.711 23.595L9.313 24.514ZM8.521 23.869C8.671 24.019 8.8 24.149 8.914 24.249C9.032 24.352 9.159 24.447 9.313 24.514L9.711 23.595C9.65986 23.5689 9.61298 23.5352 9.572 23.495C9.45407 23.3874 9.33935 23.2764 9.228 23.162L8.521 23.869ZM7.628 22.976L8.521 23.869L9.228 23.162L8.335 22.269L7.628 22.976ZM6.984 22.184C7.051 22.338 7.145 22.464 7.249 22.583C7.349 22.697 7.479 22.826 7.628 22.976L8.335 22.269C8.22028 22.1577 8.1089 22.0429 8.001 21.925C7.96082 21.884 7.9271 21.8371 7.901 21.786L6.984 22.184ZM6.932 21.131C6.82135 21.4767 6.83982 21.8509 6.984 22.184L7.901 21.786C7.85297 21.6753 7.84758 21.551 7.884 21.436L6.932 21.131ZM7.493 20.279C7.359 20.443 7.243 20.584 7.155 20.708C7.05893 20.8364 6.98367 20.9792 6.932 21.131L7.884 21.436C7.905 21.3826 7.934 21.3327 7.97 21.288C8.034 21.198 8.125 21.086 8.267 20.913L7.493 20.279ZM8.206 19.291C8.203 19.309 8.186 19.378 8.062 19.557C7.94 19.732 7.76 19.954 7.493 20.279L8.267 20.913C8.523 20.6 8.734 20.343 8.883 20.128C9.03 19.918 9.162 19.686 9.197 19.424L8.206 19.291ZM8.014 18.827C8.08408 18.8805 8.13875 18.9517 8.17247 19.0331C8.20619 19.1146 8.21776 19.2036 8.206 19.291L9.197 19.424C9.23217 19.1617 9.19732 18.8948 9.09598 18.6503C8.99464 18.4058 8.83042 18.1925 8.62 18.032L8.014 18.827ZM6.811 18.633C7.23 18.674 7.514 18.702 7.724 18.74C7.938 18.779 7.999 18.815 8.014 18.827L8.62 18.031C8.41 17.871 8.153 17.801 7.9 17.756C7.643 17.71 7.312 17.676 6.91 17.636L6.811 18.633ZM5.811 18.426C5.961 18.503 6.114 18.541 6.269 18.567C6.419 18.593 6.6 18.612 6.811 18.633L6.911 17.637C6.75147 17.6231 6.5924 17.6045 6.434 17.581C6.37744 17.5746 6.32215 17.5598 6.27 17.537L5.811 18.426ZM5.104 17.644C5.23729 17.9816 5.48848 18.2595 5.811 18.426L6.27 17.537C6.16249 17.4817 6.07865 17.3893 6.034 17.277L5.104 17.644ZM5 16.632C5 16.843 5 17.026 5.01 17.178C5.01647 17.3381 5.04854 17.4961 5.105 17.646L6.035 17.279C6.01762 17.2247 6.00851 17.168 6.008 17.111C6.00057 16.9511 5.9979 16.791 6 16.631L5 16.632ZM5 15.368V16.632H6V15.368H5ZM5.105 14.353C5.04876 14.5037 5.0167 14.6623 5.01 14.823C5 14.974 5 15.157 5 15.368H6C6 15.144 6 15 6.008 14.889C6.00848 14.832 6.01759 14.7753 6.035 14.721L5.105 14.353ZM5.812 13.572C5.48966 13.7383 5.23849 14.0158 5.105 14.353L6.035 14.721C6.07965 14.6087 6.16349 14.5163 6.271 14.461L5.812 13.572ZM6.812 13.365C6.602 13.386 6.419 13.406 6.27 13.43C6.1108 13.4529 5.95622 13.5008 5.812 13.572L6.271 14.461C6.291 14.451 6.331 14.434 6.435 14.417C6.545 14.398 6.688 14.384 6.911 14.361L6.812 13.365ZM8.015 13.171C8 13.183 7.939 13.219 7.725 13.258C7.515 13.296 7.231 13.323 6.812 13.365L6.911 14.361C7.312 14.321 7.645 14.288 7.902 14.242C8.155 14.197 8.412 14.127 8.622 13.966L8.015 13.171ZM8.207 12.707C8.21876 12.7944 8.20719 12.8834 8.17347 12.9649C8.13975 13.0463 8.08508 13.1175 8.015 13.171L8.622 13.966C8.83224 13.8054 8.99626 13.592 9.09742 13.3476C9.19858 13.1031 9.23328 12.8352 9.198 12.573L8.207 12.707ZM7.494 11.718C7.761 12.044 7.942 12.266 8.064 12.441C8.188 12.62 8.204 12.689 8.207 12.707L9.198 12.573C9.163 12.311 9.031 12.081 8.884 11.87C8.735 11.655 8.524 11.398 8.268 11.085L7.494 11.718ZM6.933 10.866C6.983 11.026 7.065 11.162 7.156 11.29C7.244 11.413 7.36 11.555 7.494 11.718L8.268 11.085C8.16529 10.9626 8.06625 10.8373 7.971 10.709C7.93508 10.6646 7.90609 10.6151 7.885 10.562L6.933 10.866ZM6.985 9.814C6.84107 10.1469 6.8226 10.5206 6.933 10.866L7.885 10.562C7.84858 10.447 7.85497 10.3227 7.903 10.212L6.985 9.814ZM7.629 9.022C7.479 9.171 7.349 9.3 7.249 9.415C7.14056 9.53328 7.05146 9.66794 6.985 9.814L7.903 10.212C7.92918 10.1612 7.96289 10.1137 8.003 10.073C8.11013 9.95465 8.22119 9.83992 8.336 9.729L7.629 9.022ZM8.522 8.128L7.629 9.022L8.336 9.729L9.229 8.835L8.522 8.128ZM9.314 7.485C9.16798 7.55153 9.03333 7.64062 8.915 7.749C8.801 7.849 8.671 7.978 8.522 8.128L9.229 8.835C9.388 8.677 9.49 8.575 9.573 8.502C9.653 8.432 9.691 8.412 9.712 8.402L9.314 7.485ZM10.367 7.432C10.0212 7.32166 9.64702 7.34049 9.314 7.485L9.712 8.402C9.82267 8.35397 9.94698 8.34858 10.062 8.385L10.367 7.432ZM11.219 7.994C11.055 7.86 10.914 7.744 10.79 7.656C10.6617 7.55953 10.5189 7.48394 10.367 7.432L10.062 8.385C10.1153 8.40569 10.1652 8.43435 10.21 8.47C10.3 8.535 10.412 8.626 10.586 8.768L11.219 7.994ZM12.207 8.707C12.189 8.704 12.12 8.687 11.941 8.563C11.6938 8.38136 11.453 8.19225 11.219 7.994L10.586 8.768C10.898 9.024 11.156 9.235 11.37 9.384C11.58 9.53 11.812 9.662 12.074 9.698L12.207 8.707ZM12.671 8.514C12.6176 8.58426 12.5465 8.63913 12.465 8.67303C12.3835 8.70693 12.2945 8.71865 12.207 8.707L12.074 9.698C12.3364 9.73347 12.6034 9.69786 12.8481 9.59669C13.0928 9.49552 13.3063 9.3314 13.467 9.121L12.671 8.514ZM12.866 7.312C12.824 7.73 12.796 8.015 12.758 8.224C12.719 8.438 12.683 8.499 12.671 8.514L13.467 9.121C13.627 8.911 13.697 8.654 13.742 8.401C13.788 8.144 13.822 7.813 13.862 7.411L12.866 7.312ZM13.072 6.312C12.995 6.462 12.956 6.615 12.93 6.77C12.905 6.92 12.887 7.101 12.866 7.312L13.861 7.412C13.8749 7.25247 13.8935 7.0934 13.917 6.935C13.9233 6.87843 13.9381 6.82313 13.961 6.771L13.072 6.312ZM13.854 5.605C13.5162 5.73853 13.2383 5.9891 13.072 6.312L13.961 6.771C14.0163 6.66349 14.1087 6.57965 14.221 6.535L13.854 5.605ZM14.868 5.5C14.657 5.5 14.474 5.5 14.322 5.51C14.1619 5.51647 14.0039 5.54854 13.854 5.605L14.221 6.535C14.2753 6.51759 14.332 6.50848 14.389 6.508C14.499 6.5 14.644 6.5 14.869 6.5L14.868 5.5ZM16.132 5.5H14.868V6.5H16.132V5.5ZM17.147 5.605C16.9963 5.54875 16.8377 5.51668 16.677 5.51C16.526 5.5 16.343 5.5 16.132 5.5V6.5C16.356 6.5 16.5 6.5 16.611 6.508C16.668 6.50881 16.7246 6.5179 16.779 6.535L17.147 5.605ZM17.928 6.312C17.7615 5.98948 17.4836 5.73829 17.146 5.605L16.779 6.535C16.8913 6.57965 16.9837 6.66349 17.039 6.771L17.928 6.312ZM19 15.999C19 16.9273 18.6313 17.8175 17.9749 18.4739C17.3185 19.1303 16.4283 19.499 15.5 19.499V20.499C16.6935 20.499 17.8381 20.0249 18.682 19.181C19.5259 18.3371 20 17.1925 20 15.999H19ZM15.5 12.499C16.4283 12.499 17.3185 12.8677 17.9749 13.5241C18.6313 14.1805 19 15.0707 19 15.999H20C20 14.8055 19.5259 13.6609 18.682 12.817C17.8381 11.9731 16.6935 11.499 15.5 11.499V12.499ZM12 15.999C12 15.0707 12.3687 14.1805 13.0251 13.5241C13.6815 12.8677 14.5717 12.499 15.5 12.499V11.499C14.3065 11.499 13.1619 11.9731 12.318 12.817C11.4741 13.6609 11 14.8055 11 15.999H12ZM15.5 19.499C14.5717 19.499 13.6815 19.1303 13.0251 18.4739C12.3687 17.8175 12 16.9273 12 15.999H11C11 17.1925 11.4741 18.3371 12.318 19.181C13.1619 20.0249 14.3065 20.499 15.5 20.499V19.499Z" fill="#F7F7F7"/>
</g>
<defs>
<filter id="filter0_i_613_423" x="0" y="0.5" width="30" height="34" filterUnits="userSpaceOnUse" color-interpolation-filters="sRGB">
<feFlood flood-opacity="0" result="BackgroundImageFix"/>
<feBlend mode="normal" in="SourceGraphic" in2="BackgroundImageFix" result="shape"/>
<feColorMatrix in="SourceAlpha" type="matrix" values="0 0 0 0 0 0 0 0 0 0 0 0 0 0 0 0 0 0 127 0" result="hardAlpha"/>
<feOffset dy="4"/>
<feGaussianBlur stdDeviation="2"/>
<feComposite in2="hardAlpha" operator="arithmetic" k2="-1" k3="1"/>
<feColorMatrix type="matrix" values="0 0 0 0 0 0 0 0 0 0 0 0 0 0 0 0 0 0 0.25 0"/>
<feBlend mode="normal" in2="shape" result="effect1_innerShadow_613_423"/>
</filter>
</defs>
</svg>
