<svg width="30" height="31" viewBox="0 0 30 31" fill="none" xmlns="http://www.w3.org/2000/svg">
<g filter="url(#filter0_i_613_424)">
<circle cx="15" cy="15.5" r="15" fill="#4C4C4C"/>
</g>
<path d="M14.0543 15.4811L12.4964 13.9232C12.4536 13.8804 12.4061 13.8482 12.3539 13.8265C12.3017 13.8048 12.2489 13.7942 12.1956 13.7948C12.1422 13.7954 12.0859 13.8059 12.0267 13.8265C11.9674 13.847 11.9164 13.8792 11.8736 13.9232C11.7798 14.0171 11.7329 14.1209 11.7329 14.2346C11.7329 14.3484 11.7798 14.4522 11.8736 14.546L13.5573 16.2174C13.6992 16.3593 13.8649 16.4303 14.0543 16.4303C14.2438 16.4303 14.4097 16.3593 14.5522 16.2174L18.2874 12.6811C18.2874 12.5709 18.2783 12.4594 18.2601 12.3468C18.2419 12.2337 18.1918 12.136 18.1097 12.0539C18.0123 11.9571 17.9076 11.9088 17.7956 11.9088C17.6836 11.9088 17.5789 11.9571 17.4816 12.0539L14.0543 15.4811ZM6 21.6952V20.8155H23.5602C23.6851 20.8155 23.7895 20.8574 23.8733 20.9413C23.9572 21.0252 23.9994 21.1296 24 21.2545C24.0006 21.3794 23.9584 21.4841 23.8733 21.5685C23.7883 21.653 23.6839 21.6952 23.5602 21.6952H6ZM8.50445 19.9358C8.09921 19.9358 7.76082 19.8001 7.4893 19.5285C7.21777 19.257 7.0823 18.9189 7.08288 18.5143V9.92068C7.08288 9.51603 7.21865 9.17794 7.49018 8.90641C7.7617 8.63489 8.0995 8.49942 8.50357 8.5H21.4964C21.9011 8.5 22.2389 8.63547 22.5098 8.90641C22.7808 9.17735 22.9165 9.51544 22.9171 9.92068V18.5151C22.9171 18.9198 22.7813 19.2576 22.5098 19.5285C22.2383 19.7995 21.9002 19.9352 21.4955 19.9358H8.50445ZM8.50445 19.0562H21.4964C21.6313 19.0562 21.7553 18.9996 21.8685 18.8864C21.9817 18.7732 22.038 18.6492 22.0374 18.5143V9.92068C22.0374 9.7858 21.9811 9.66176 21.8685 9.54858C21.7553 9.43539 21.631 9.3788 21.4955 9.3788H8.50445C8.36898 9.3788 8.24465 9.43539 8.13146 9.54858C8.01886 9.66118 7.96256 9.78521 7.96256 9.92068V18.5151C7.96256 18.65 8.01886 18.7738 8.13146 18.8864C8.24406 18.999 8.3681 19.0556 8.50357 19.0562" fill="#F7F7F7"/>
<defs>
<filter id="filter0_i_613_424" x="0" y="0.5" width="30" height="34" filterUnits="userSpaceOnUse" color-interpolation-filters="sRGB">
<feFlood flood-opacity="0" result="BackgroundImageFix"/>
<feBlend mode="normal" in="SourceGraphic" in2="BackgroundImageFix" result="shape"/>
<feColorMatrix in="SourceAlpha" type="matrix" values="0 0 0 0 0 0 0 0 0 0 0 0 0 0 0 0 0 0 127 0" result="hardAlpha"/>
<feOffset dy="4"/>
<feGaussianBlur stdDeviation="2"/>
<feComposite in2="hardAlpha" operator="arithmetic" k2="-1" k3="1"/>
<feColorMatrix type="matrix" values="0 0 0 0 0 0 0 0 0 0 0 0 0 0 0 0 0 0 0.25 0"/>
<feBlend mode="normal" in2="shape" result="effect1_innerShadow_613_424"/>
</filter>
</defs>
</svg>
