<svg width="22" height="21" viewBox="0 0 22 21" fill="none" xmlns="http://www.w3.org/2000/svg">
<path fill-rule="evenodd" clip-rule="evenodd" d="M21.5005 10.4086C21.5005 9.68671 21.4349 8.99256 21.3129 8.32617H11.5935V12.2643H17.1474C16.9082 13.5369 16.1811 14.6152 15.0882 15.3371V17.8916H18.4234C20.3747 16.1192 21.5005 13.5092 21.5005 10.4086Z" fill="#4285F4"/>
<path fill-rule="evenodd" clip-rule="evenodd" d="M11.3543 20.4996C14.2078 20.4996 16.6002 19.6041 18.3488 18.0768L14.9332 15.5676C13.9868 16.1677 12.7762 16.5222 11.3543 16.5222C8.60159 16.5222 6.27167 14.7631 5.44058 12.3994H1.90967V14.9904C3.6487 18.2586 7.22285 20.4996 11.3543 20.4996Z" fill="#34A853"/>
<path fill-rule="evenodd" clip-rule="evenodd" d="M5.44093 12.4008C5.22956 11.8008 5.10946 11.1599 5.10946 10.5008C5.10946 9.84165 5.22956 9.20073 5.44093 8.60072V6.00977H1.91002C1.19423 7.35979 0.785889 8.88709 0.785889 10.5008C0.785889 12.1144 1.19423 13.6417 1.91002 14.9917L5.44093 12.4008Z" fill="#FBBC05"/>
<path fill-rule="evenodd" clip-rule="evenodd" d="M11.3543 4.47734C12.9059 4.47734 14.2991 4.9819 15.3944 5.97282L18.4257 3.10459C16.5954 1.49093 14.203 0.5 11.3543 0.5C7.22285 0.5 3.6487 2.74095 1.90967 6.00919L5.44058 8.60014C6.27167 6.23646 8.60159 4.47734 11.3543 4.47734Z" fill="#EA4335"/>
</svg>
